<svg xmlns="http://www.w3.org/2000/svg" viewBox="0 0 100 100" width="500" height="500"><path fill="#cee1f4" d="M49.3 12.300000000000004A37.3 37.3 0 1 0 49.3 86.9A37.3 37.3 0 1 0 49.3 12.300000000000004Z"/><path fill="#e5ac80" d="M62.2,84.5C62,80.2,61.7,73,61.7,73c-0.4-2.1-1.3-3.4-3.3-4L58,68.8l-0.6-0.2 c-1.3-0.5-8.6-3.3-8.6-3.3c-0.6-0.2-1-0.5-1.2-1.1c-0.2-0.9-0.3-1.9-0.2-2.9c-1.6,0.6-3.3,1-5,1.4c-1.9,0.2-6-2.3-6-2.3 s-0.1,3-0.2,3.7c-0.2,0.6-0.7,1-1.3,1.1l-7.1,2.6c-0.8,0.2-1.5,0.5-2.2,0.9c-1.5,1-2.6,2.5-3.1,4.2c0,0-0.2,1.1-0.3,2.1 C32.4,86,48.2,89.7,62.2,84.5L62.2,84.5z"/><path fill="#fdfcef" d="M22.1,75c10.2,11,26,14.8,40.1,9.6C62,80.2,61.7,73,61.7,73c-0.4-2.1-1.3-3.4-3.3-4L58,68.9 l-0.6-0.2c-0.8-0.3-3.9-1.5-6.2-2.3h-0.1c-2.5,1.3-6.1,3.2-9.3,3.2s-6.5-1.7-9.3-3.2l-0.3,0.1L27.8,68c-0.8,0.2-1.5,0.5-2.2,0.9 c-1.5,1-2.6,2.4-3.1,4.1C22.5,73,22.3,73.9,22.1,75z"/><path fill="#92bde8" fill-rule="evenodd" d="M28.5 80.4c0-4.8-.7-8.3-5.4-9.3-.5 1.3-.9 2.6-1.1 4C24 77 26.2 78.8 28.5 80.4zM50.3 65.9c-.1 0-.2 0-.3-.1-4.3 4.5-11.5 4.7-16 .4-.1-.1-.1-.1-.2-.2-.5.3-1 .5-1.5.6 4.1 4.4 12.7 7.6 19-.4C51 66 50.7 65.9 50.3 65.9zM61.8 73c.5 3.8.7 7.6.8 11.4l-6.8 2.1C55.7 78.6 55.3 74.4 61.8 73z" clip-rule="evenodd"/><path fill="#fff" d="M20.1 55.300000000000004A.9.9 0 1 0 20.1 57.1.9.9 0 1 0 20.1 55.300000000000004zM78.9 30.7A.7.7 0 1 0 78.9 32.1.7.7 0 1 0 78.9 30.7z"/><path fill="#f1bc19" d="M76.3 11.6A.9.9 0 1 0 76.3 13.4.9.9 0 1 0 76.3 11.6zM20.6 62.9A.9.9 0 1 0 20.6 64.7.9.9 0 1 0 20.6 62.9zM81.7 10.6A4 4 0 1 0 81.7 18.6 4 4 0 1 0 81.7 10.6z"/><path fill="#ee3e54" d="M85.7 21.8A1.9 1.9 0 1 0 85.7 25.599999999999998A1.9 1.9 0 1 0 85.7 21.8Z"/><path fill="#fbcd59" d="M76.7 73.89999999999999A1.9 1.9 0 1 0 76.7 77.7 1.9 1.9 0 1 0 76.7 73.89999999999999zM13.9 58.9A4 4 0 1 0 13.9 66.9 4 4 0 1 0 13.9 58.9z"/><path fill="#ee3e54" d="M24.1 85A1.9 1.9 0 1 0 24.1 88.80000000000001A1.9 1.9 0 1 0 24.1 85Z"/><path fill="#fff" d="M75.4 28.099999999999998A1.8 1.8 0 1 0 75.4 31.7 1.8 1.8 0 1 0 75.4 28.099999999999998zM17.6 48.4A2.5 2.5 0 1 0 17.6 53.4 2.5 2.5 0 1 0 17.6 48.4z"/><path fill="#db9e71" d="M54,46.7h-0.3c-1,0-1.2,0.3-1.2-0.3c0.1-1-0.1-5.3-0.1-5.5c0-4.4-4.6-8-10.4-8.3h-0.2 c-5.8,0.2-10.4,3.8-10.4,8.3c0,0.2-0.1,4.5-0.1,5.5c0,0.6-0.2,0.2-1.2,0.3h-0.4c-1,0-1.8,0.7-2.1,1.6c0.1,0.1,0.6,3.7,1.4,5.1 c0.4,0.8,1.1,0.9,1.8,1.4c0.3,0.2,0.5,0.6,0.6,1c0.5,1.6,1.4,3,2.7,4.1c0.6,0.6,5.1,4.3,7.8,4.5c3.4-0.1,7.2-3.9,7.8-4.5 c1.2-1.1,2.2-2.5,2.7-4.1c0-0.4,0.2-0.8,0.6-1c0.7-0.5,1.4-0.6,1.8-1.4c0.8-1.4,1.3-5.1,1.4-5.1C55.8,47.3,55,46.7,54,46.7z"/><path fill="#512c2b" d="M42 53.6c.7 0 1.3-.3 1.8-.8 0 0 0-.1 0-.2 0 0 0 0 0 0l0 0c0 0-.1 0-.2 0-.9.8-2.3.8-3.2 0-.1 0-.1 0-.2 0 0 0 0 .1 0 .2 0 0 0 0 0 0C40.7 53.3 41.3 53.6 42 53.6zM39.8 44.4l.4-.8c-1.9-.4-3.8-.4-5.7.2l.5.8C36.6 44.1 38.3 44 39.8 44.4zM48.9 44.4l.4-.8c-1.9-.4-3.8-.4-5.7.2l.5.8C45.8 44.1 47.4 44 48.9 44.4zM37.2 45.6c-.4 0-.8.3-1 .7.1 0 .1 0 .2 0 .4 0 .7.3.7.7 0 .4-.3.7-.7.7-.1 0-.2 0-.3-.1.1.6.6 1.1 1.2 1.1.9-.2 1.4-1.1 1.2-2C38.3 46.2 37.8 45.7 37.2 45.6L37.2 45.6zM46.7 45.6c-.4 0-.7.2-.9.5.1 0 .2 0 .2 0 .4 0 .7.3.7.7 0 0 0 0 0 0 0 .4-.3.7-.7.7-.2 0-.4-.1-.5-.3.2.7.9 1.1 1.6.9.7-.2 1.1-.9.9-1.6C47.8 46 47.3 45.6 46.7 45.6L46.7 45.6zM32.1 43c.5-2.2 1.2-4.2 2.3-6.2-.3-.5-.9-.7-1.5-.5-1.4 2.6-2.2 5.5-2.1 8.4.1 1.3.3 2.7.7 3.9C31.8 46.8 31.7 44.9 32.1 43zM51.8 43c-.5-2.2-1.2-4.2-2.3-6.2.3-.5.9-.7 1.5-.5 1.4 2.6 2.1 5.5 2.1 8.4-.1 1.3-.3 2.7-.7 3.9C52.1 46.8 52.2 44.9 51.8 43z"/><path fill="#895d3d" d="M54.1 51.4l-.6-.1.2-1.8-1 .4-.2-.6 1.5-.6c.1 0 .2 0 .3 0 .1.1.1.2.1.3L54.1 51.4zM30 51.1l-.3-2.3c0-.1 0-.2.1-.3.1-.1.2-.1.3 0l1.5.6-.2.6-1-.4.2 1.8L30 51.1z"/><path fill="#472b29" d="M31.4 55.5C31.3 55.5 31.3 55.5 31.4 55.5c-.1 0-.2-.1-.2-.2l.2-8.6c0-.1.1-.2.2-.2 0 0 0 0 0 0 .1 0 .2.1.2.2l-.2 8.6C31.5 55.4 31.5 55.5 31.4 55.5zM52.6 55.5c-.1 0-.2-.1-.2-.2l-.2-8.6c0-.1.1-.2.2-.2 0 0 0 0 0 0 .1 0 .2.1.2.2l.2 8.6C52.8 55.4 52.7 55.5 52.6 55.5 52.6 55.5 52.6 55.5 52.6 55.5zM42 64.6c-2.1 0-5.6-2.4-5.8-2.5-.1-.1-.1-.2-.1-.3.1-.1.2-.1.3-.1 0 0 3.9 2.6 5.7 2.4 1.9-.2 5-2.2 5-2.3.1-.1.3 0 .3.1s0 .3-.1.3c-.1.1-3.2 2.1-5.2 2.3C42.2 64.6 42.1 64.6 42 64.6z"/><path fill="#fdfcef" d="M67.6,70.5c0,0.9-0.7,1.7-1.6,1.7c-0.9,0-1.7-0.7-1.7-1.6c0-0.9,0.7-1.7,1.6-1.7c0,0,0,0,0,0 C66.8,68.9,67.5,69.6,67.6,70.5C67.5,70.5,67.5,70.5,67.6,70.5z"/><path fill="#472b29" d="M65.9,72.7c-0.6,0-1.1-0.2-1.5-0.6c-0.4-0.4-0.7-0.9-0.7-1.5c0-0.6,0.2-1.1,0.6-1.5 c0.4-0.4,0.9-0.7,1.5-0.7c0,0,0,0,0,0c1.2,0,2.1,0.9,2.2,2.1l-0.5,0l0.5,0C68.1,71.7,67.1,72.7,65.9,72.7 C65.9,72.7,65.9,72.7,65.9,72.7z M65.9,69.4C65.9,69.4,65.9,69.4,65.9,69.4c-0.4,0-0.7,0.1-0.9,0.4s-0.3,0.5-0.3,0.8 c0,0.3,0.1,0.6,0.4,0.8c0.2,0.2,0.5,0.3,0.8,0.3c0.6,0,1.1-0.5,1.1-1.2c0,0,0,0,0,0v0C67,69.9,66.5,69.4,65.9,69.4z"/><path fill="#fdfcef" d="M73.7,65.6c0,1.5-1.2,2.8-2.7,2.8c-1.5,0-2.8-1.2-2.8-2.7c0-1.5,1.2-2.8,2.7-2.8c0,0,0,0,0.1,0 C72.4,62.9,73.6,64.1,73.7,65.6C73.7,65.6,73.7,65.6,73.7,65.6z"/><path fill="#472b29" d="M70.9,68.9c-1.8,0-3.2-1.4-3.2-3.2c0-1.8,1.4-3.3,3.2-3.3c0.9,0,1.7,0.3,2.3,0.9s1,1.4,1,2.3 l-0.5,0l0.5,0C74.2,67.3,72.8,68.8,70.9,68.9C71,68.9,70.9,68.9,70.9,68.9z M71,63.4C71,63.4,70.9,63.4,71,63.4 c-1.3,0-2.3,1.1-2.3,2.3c0,1.2,1,2.2,2.2,2.2c0,0,0,0,0,0c1.2,0,2.2-1.1,2.2-2.3c0,0,0,0,0,0v0C73.1,64.4,72.2,63.4,71,63.4z"/><path fill="#fdfcef" d="M90.9,44.2c0.1-0.3,0.1-0.6,0.1-0.9c0-3.1-2.6-5.5-5.7-5.5c-2-3.7-6.7-5.1-10.4-3 c-1.3,0.7-2.4,1.9-3.1,3.2c-0.4-0.2-0.7-0.2-1.1-0.3c-1.4,0-2.6,1.1-2.6,2.5c0,0,0,0,0,0c0,0.2,0,0.4,0.1,0.6 c-4.1-0.8-8.1,1.9-8.9,6.1c-0.1,0.4-0.1,0.8-0.1,1.2c0,2.7,1.5,5.2,3.9,6.4c0,0,0,0.1,0,0.1c0,3.1,2.6,5.6,5.7,5.5c0,0,0,0,0,0 c1.6,0,3.1-0.7,4.2-1.8c2.8,3.2,7.7,3.5,10.9,0.7c0.4-0.4,0.8-0.8,1.1-1.3c0.9,0.4,1.9,0.5,2.8,0.5c4.1,0.1,7.6-3.2,7.6-7.4 C95.4,48,93.7,45.4,90.9,44.2z"/><path fill="#472b29" d="M78.7,61.5c-2.1,0-4.2-0.8-5.8-2.4c-1.1,1-2.6,1.6-4.2,1.6c0,0-0.1,0-0.1,0c-3.3,0-6-2.6-6.1-5.9 c-2.4-1.4-3.9-3.9-3.9-6.7c0-0.4,0.1-0.9,0.1-1.3c0.8-4.2,4.6-7,8.8-6.6c0,0,0,0,0,0c0,0,0,0,0,0c0-0.8,0.3-1.6,0.9-2.1 c0.6-0.6,1.4-0.9,2.2-0.9c0.3,0,0.6,0,0.9,0.1c0.7-1.3,1.8-2.3,3.1-3c1.9-1.1,4.1-1.3,6.2-0.7c2,0.6,3.7,1.9,4.7,3.6 c3.2,0.1,5.8,2.7,5.9,6c0,0.2,0,0.4,0,0.6c2.7,1.3,4.4,4,4.5,7.1c-0.1,4.4-3.7,7.9-8,7.9c0,0-0.1,0-0.1,0c-0.9,0-1.8-0.2-2.6-0.4 c-0.3,0.4-0.6,0.7-1,1C82.6,60.9,80.7,61.5,78.7,61.5z M73,58C73,58,73,58,73,58c0.1,0,0.3,0.1,0.4,0.2c2.6,3,7.2,3.3,10.2,0.6 c0.4-0.4,0.8-0.7,1.1-1.2c0.1-0.2,0.4-0.3,0.6-0.2c0.8,0.3,1.7,0.5,2.6,0.5c0,0,0.1,0,0.1,0c3.8,0,7-3.1,7-6.9 c0-2.7-1.7-5.2-4.2-6.3c-0.2-0.1-0.3-0.3-0.3-0.6c0.1-0.3,0.1-0.6,0.1-0.8c0-2.8-2.3-5-5.1-5c0,0-0.1,0-0.1,0 c-0.2,0-0.3-0.1-0.4-0.3c-0.9-1.7-2.4-2.9-4.3-3.4c-1.8-0.5-3.8-0.3-5.4,0.6c-1.3,0.7-2.3,1.7-2.9,3c-0.1,0.2-0.4,0.3-0.7,0.2 c-0.3-0.1-0.6-0.2-0.9-0.2c-0.5,0-1.1,0.2-1.5,0.6c-0.4,0.4-0.6,0.9-0.6,1.5c0,0,0,0,0,0c0,0.2,0,0.3,0.1,0.5 c0.1,0.2,0,0.3-0.1,0.5c-0.1,0.1-0.3,0.2-0.5,0.2c-3.8-0.7-7.6,1.8-8.3,5.7c-0.1,0.4-0.1,0.7-0.1,1.1c0,2.5,1.4,4.8,3.6,6 c0.2,0.1,0.3,0.3,0.3,0.4v0.1c0,2.8,2.4,5,5.2,5c0,0,0,0,0,0c1.5,0,2.8-0.6,3.8-1.7C72.7,58,72.8,58,73,58z"/><path fill="#f1bc19" d="M79.5,52.4c0.4-0.3,0.6-0.8,0.5-1.3l-0.1-1c2-0.9,3.3-2.9,3.3-5.1c-0.1-3.2-2.8-5.8-6-5.8 c-3.2,0-5.8,2.6-5.8,5.8c0,2.2,1.2,4.1,3.2,5.1l-0.1,1c0,0.6,0.4,1.1,1,1.3"/><path fill="#472b29" d="M79.5,52.8c-0.1,0-0.2-0.1-0.3-0.1c-0.1-0.2-0.1-0.4,0.1-0.5c0.3-0.2,0.5-0.6,0.4-1l-0.1-1 c0-0.1,0.1-0.3,0.2-0.4c1.9-0.9,3.1-2.7,3.1-4.8c-0.1-3-2.5-5.4-5.5-5.4c0,0-0.1,0-0.1,0c-3,0-5.4,2.4-5.5,5.4c0,2,1.2,3.9,3,4.8 c0.1,0.1,0.2,0.2,0.2,0.4l-0.1,1c0,0.4,0.3,0.8,0.7,0.9c0.2,0.1,0.3,0.2,0.2,0.4c-0.1,0.2-0.2,0.3-0.4,0.2 c-0.7-0.2-1.2-0.9-1.3-1.6l0.1-0.8C72.2,49.2,71,47.2,71,45c0-3.4,2.8-6.1,6.1-6.1c0,0,0.1,0,0.1,0c3.4,0,6.1,2.7,6.2,6.1 c-0.1,2.3-1.3,4.3-3.3,5.3l0.1,0.8c0.1,0.6-0.2,1.3-0.7,1.7C79.6,52.7,79.5,52.8,79.5,52.8z"/><path fill="#472b29" d="M76.5,51.9C76.5,51.9,76.5,51.9,76.5,51.9c-0.1,0-0.2-0.1-0.2-0.2c0.2-1.1,0.1-2.3-0.3-3.3 c-0.3,0.1-0.7,0-1-0.2c-0.3-0.2-0.5-0.5-0.5-0.7c0-0.2,0.1-0.4,0.2-0.6c0.1-0.1,0.1-0.1,0.2-0.2c0,0,0,0,0.1,0 c0.3,0,0.5,0.2,0.7,0.4c0.2,0.3,0.3,0.6,0.4,0.8c0,0,0.1-0.1,0.1-0.1c0.1-0.1,0.1-0.1,0.2-0.2c-0.1-0.2-0.2-0.5-0.1-1 c0.1-0.2,0.3-0.4,0.5-0.5c0.1,0,0.3,0,0.4,0.1c0,0,0,0,0,0c0.1,0.2,0.1,0.4,0,0.6c-0.1,0.3-0.2,0.5-0.3,0.8 c0.2,0.1,0.4,0.2,0.7,0.1c0.2,0,0.4-0.1,0.6-0.3C78.1,47.3,78,47,78,46.7c0.1-0.3,0.3-0.4,0.4-0.5c0.1,0,0.3-0.1,0.4-0.1 c0.2,0.1,0.2,0.3,0.2,0.5c0,0.3,0,0.5-0.2,0.8c0.1,0,0.1,0,0.2,0.1c0.2-0.4,0.4-0.7,0.7-0.8c0.2-0.1,0.4,0,0.5,0.2 c0.3,0.4,0.2,0.6,0.1,0.8c-0.2,0.2-0.6,0.3-1.1,0.2c-0.5,1.1-1.1,3.1-1,3.8c0,0.1-0.1,0.2-0.2,0.2c-0.1,0-0.2-0.1-0.2-0.2 c-0.1-0.6,0.4-2.6,1-3.9c-0.1,0-0.2-0.1-0.3-0.1c-0.2,0.3-0.6,0.4-0.9,0.4c-0.4,0-0.7,0-1-0.2c-0.1,0.1-0.2,0.2-0.3,0.2 c-0.1,0-0.1,0.1-0.2,0.1c0.4,1.1,0.5,2.3,0.3,3.5C76.7,51.8,76.6,51.9,76.5,51.9z M75.2,47C75.2,47,75.2,47.1,75.2,47 c-0.1,0.1-0.1,0.1-0.1,0.1C75,47.2,75,47.3,75,47.4c0,0.2,0.1,0.3,0.3,0.5c0.2,0.1,0.4,0.1,0.6,0.1c-0.1-0.3-0.2-0.5-0.4-0.8 C75.5,47.1,75.3,47,75.2,47z M79.5,47.5c0.3,0,0.5,0,0.6-0.1c0.1-0.1,0-0.2-0.1-0.3C80,47,80,47,79.9,47 C79.8,47.1,79.7,47.2,79.5,47.5z M77.1,46.5C77.1,46.5,77.1,46.5,77.1,46.5c-0.1,0-0.2,0.1-0.3,0.2c-0.1,0.2-0.1,0.5,0,0.6 c0.1-0.2,0.2-0.4,0.2-0.6c0,0,0,0,0,0C77.1,46.7,77.1,46.6,77.1,46.5C77.1,46.5,77.1,46.5,77.1,46.5z M78.7,46.5 c-0.1,0-0.3,0.2-0.4,0.3c0,0.2,0.1,0.4,0.3,0.5c0.1-0.2,0.1-0.4,0.1-0.6C78.8,46.5,78.8,46.5,78.7,46.5z"/><path fill="#c29b67" d="M78.8,53.9h-3.2c-0.4,0-0.7-0.3-0.7-0.7c0,0,0,0,0,0l0,0c0-0.4,0.3-0.7,0.7-0.7c0,0,0,0,0,0H79 c0.4,0,0.7,0.3,0.7,0.7c0,0,0,0,0,0l0,0c0,0.1,0,0.3-0.1,0.4"/><path fill="#472b29" d="M78.8,54.2h-3.2c-0.3,0-0.5-0.1-0.7-0.3s-0.3-0.5-0.3-0.7c0-0.3,0.1-0.5,0.3-0.7s0.4-0.3,0.7-0.3 H79c0.6,0,1,0.5,1,1c0,0.2-0.1,0.5-0.3,0.7c-0.1,0.1-0.4,0.1-0.5,0c-0.1-0.1-0.1-0.4,0-0.5c0,0,0-0.1,0-0.1c0-0.2-0.2-0.4-0.3-0.4 h-3.4c-0.1,0-0.2,0-0.2,0.1c-0.1,0.1-0.1,0.1-0.1,0.2c0,0.1,0,0.2,0.1,0.3c0.1,0.1,0.1,0.1,0.2,0.1h3.2c0.2,0,0.3,0.2,0.3,0.3 S79,54.2,78.8,54.2z"/><path fill="#c29b67" d="M75.7,53.9h3.3c0.3,0,0.5,0.2,0.5,0.5v0.5c0,0.3-0.2,0.5-0.5,0.5h-3.3c-0.3,0-0.5-0.2-0.5-0.5v-0.5 C75.3,54.1,75.5,53.9,75.7,53.9z"/><path fill="#472b29" d="M79.1,55.6h-3.3c-0.4,0-0.8-0.4-0.8-0.8v-0.5c0-0.4,0.4-0.8,0.8-0.8h3.3c0.4,0,0.8,0.4,0.8,0.8v0.5 C79.9,55.3,79.5,55.6,79.1,55.6z M75.7,54.2c-0.1,0-0.1,0-0.1,0.1v0.5c0,0.1,0,0.1,0.1,0.1h3.3c0.1,0,0.1,0,0.1-0.1v-0.5 c0-0.1,0-0.1-0.1-0.1H75.7z"/><path fill="#9f8066" d="M78.8,55.4c0,0.7-1,0.8-1.4,0.8c-0.7,0-1.3-0.4-1.3-0.8"/><path fill="#472b29" d="M77.4 56.5c-.9 0-1.7-.5-1.7-1.2 0-.2.2-.3.3-.3s.3.2.3.3c0 .2.4.5 1 .5.3 0 1-.2 1-.5 0-.2.2-.3.3-.3s.3.2.3.3C79.1 56.2 78.1 56.5 77.4 56.5zM81.9 45.2L81.9 45.2c-.1 0-.2-.1-.2-.2 0-.4-.1-.8-.2-1.1 0-.1 0-.2.1-.2.1 0 .2 0 .2.1.1.4.2.8.2 1.3C82.1 45.1 82 45.2 81.9 45.2zM81.4 43.2c-.1 0-.1 0-.2-.1-.6-1.2-1.7-2-3-2.2-.2 0-.5-.1-.7-.1-.1 0-.2-.1-.2-.2s.1-.2.2-.2c.2 0 .5 0 .7.1 1.4.2 2.6 1.1 3.3 2.4C81.6 43.1 81.6 43.2 81.4 43.2 81.5 43.2 81.4 43.2 81.4 43.2zM49.3 87.2C39.1 87.2 29 83 21.8 75.2c-.1-.1-.1-.2-.1-.3.1-.5.2-1.1.4-1.8.4-2 1.6-3.6 3.4-4.5.7-.4 1.5-.7 2.3-.9l7-2.5c.5-.1.9-.4 1-.9 0-.3.1-1.2.1-2-1-.8-1.9-1.4-2.1-1.6-1.3-1.1-2.3-2.6-2.8-4.3-.1-.4-.2-.6-.4-.8-.2-.1-.4-.3-.6-.4-.5-.3-1-.5-1.3-1.2-.8-1.7-1.3-3.5-1.4-5.4 0 0 0-.1 0-.1.3-1.1 1.3-1.9 2.5-1.9h.4c.3 0 .6 0 .8 0-.1-1 0-3.8.1-5 0-.3 0-.5 0-.5 0-4.7 4.7-8.5 10.8-8.7H42c6.1.2 10.8 4.1 10.8 8.7 0 0 0 .2 0 .5 0 1.2.1 4 .1 5 .2 0 .4-.1.8-.1H54c1.2 0 2.2.8 2.5 1.9 0 0 0 .1 0 .1-.2 1.9-.6 3.6-1.4 5.3-.4.7-.8.9-1.3 1.2-.2.1-.4.2-.6.4-.2.2-.4.4-.4.7-.5 1.7-1.5 3.2-2.8 4.4-.7.6-1.5 1.2-2.3 1.8 0 .7.1 1.3.3 2 .2.4.5.7 1 .8.3.1 7.4 2.7 8.7 3.3l.6.2c0 0 .1 0 .2.1 0 0 .1 0 .2 0 2.1.6 3.2 1.9 3.6 4.3 0 .1.3 7.1.5 11.5 0 .2-.1.3-.3.4C58.1 86.5 53.7 87.2 49.3 87.2zM22.5 74.8C32.6 85.5 48 89.2 61.8 84.3c-.2-4.3-.5-11.1-.5-11.1-.4-2.1-1.2-3.1-3-3.6-.1 0-.2-.1-.3-.1l-.7-.3c-1.2-.5-8.5-3.2-8.6-3.2-.6-.2-1.2-.7-1.5-1.3-.3-.8-.3-1.6-.3-2.5 0-.1.1-.2.2-.3.8-.6 1.6-1.2 2.3-1.8 1.2-1.1 2.1-2.4 2.5-3.9.1-.4.3-.9.7-1.2.3-.2.5-.3.7-.5.4-.2.8-.4 1-.9.7-1.6 1.2-3.2 1.3-5-.2-.8-.9-1.3-1.7-1.3h-.3c-.3 0-.5 0-.7.1-.3 0-.5.1-.7-.1-.2-.2-.2-.5-.2-.6.1-.8 0-3.8-.1-5 0-.3 0-.5 0-.6 0-4.3-4.4-7.7-10-7.9h-.2c-5.6.2-10 3.7-10 7.9 0 0 0 .2 0 .5 0 1.1-.1 4.2-.1 5 0 .3 0 .5-.2.6-.2.2-.4.1-.7.1-.2 0-.4-.1-.7 0l-.4 0c-.8 0-1.4.5-1.7 1.2.2 1.7.6 3.4 1.3 5 .2.4.6.6 1 .8.2.1.5.3.7.4.4.3.7.8.7 1.3.5 1.5 1.3 2.8 2.5 3.9.2.2 1.1.9 2.2 1.7.1.1.2.2.2.3 0 .9-.1 2.1-.2 2.4-.3.8-.9 1.3-1.6 1.4l-7 2.5c-.8.2-1.5.5-2.1.9-1.5.8-2.6 2.2-3 3.9C22.7 73.8 22.6 74.3 22.5 74.8z"/><path fill="#472b29" d="M48.8,60.9c-1.8,1.2-5.3,1.9-6,0.8c-0.5-0.8-1.2-0.8-1.7,0c-0.7,1.2-4.4,0-6.3-1.4 c-0.5,0,0,0.2-0.4,0.5c2.5,2,7.3,4.9,7.6,4.8l0,0c2.5-1.2,4.8-2.7,7-4.4C48.6,61,49.3,61,48.8,60.9z"/><path fill="#ee3e54" d="M40.7 46.2c-2-1.7-9.5-.5-9.5-.5.1.4.3.8.4 1.2.6 0 .6.9.6 1.3.3 1.6 1.8 2.7 4.9 2.7s3.8-1.7 4-2.7C41.2 47.4 41 46.7 40.7 46.2zM40.3 48.1c-.2 1.4-1.3 2.2-3.3 2.3h-.6c-3.1 0-3.6-1.9-3.7-3.2 0-.7.7-1.3 1.7-1.4.6 0 1.2 0 2 0 2.3 0 3.3.4 3.6.7C40.3 47 40.4 47.6 40.3 48.1zM42.9 48c.1 1 .9 2.6 4 2.7s4.6-1.1 4.9-2.7c.1-.3.1-1.2.7-1.3.1-.4.2-.8.4-1.2 0 0-7.5-1.2-9.5.5C42.9 46.7 42.8 47.4 42.9 48zM44 46.6c.3-.3 1.3-.7 3.6-.7.7 0 1.4 0 2 0 1 .1 1.7.7 1.7 1.4-.1 1.2-.6 3.2-3.7 3.2H47c-2-.1-3.2-.9-3.3-2.3C43.6 47.6 43.7 47 44 46.6z"/><path fill="#ee3e54" d="M43.3,47.5c-0.4-0.2-0.9-0.3-1.4-0.3c-0.5,0-0.9,0.1-1.3,0.3l-0.4-0.8h3.5 C43.6,47,43.5,47.3,43.3,47.5z"/><path fill="#512c2b" d="M43.3,37c2,0.6,4.2,0.7,6.2,0.1c2-0.8,3.6-2.5,4.1-4.6c-1.8,0.9-3.8-0.5-5.6-1.4 c-4.6-2.1-10-1-13.5,2.6c-1.8,1.9-2.7,3.6,0.3,3.1C37.6,36.2,40.5,36.3,43.3,37z"/><path fill="#6d1b18" d="M38.6,56.5c0,0.2-0.1,0.3-0.1,0.5c0,1.4,1.5,2.5,3.4,2.5s3.4-1.1,3.4-2.5c0-0.2,0-0.3-0.1-0.5H38.6z"/><path fill="#ee3e54" d="M43.8,59.1c-0.5-0.4-1.2-0.6-1.8-0.6c-0.7,0-1.3,0.2-1.8,0.6c0.6,0.3,1.2,0.4,1.8,0.4 C42.6,59.5,43.2,59.3,43.8,59.1z"/><path fill="#fdfcef" d="M39.6,56.5v0.5c0,0.4,0.5,0.7,1.1,0.7h2.6c0.6,0,1.1-0.3,1.1-0.7v-0.5H39.6z"/><path fill="#472b29" d="M42,59.7c-2,0-3.6-1.2-3.6-2.7c0-0.2,0-0.4,0.1-0.5c0-0.1,0.1-0.1,0.2-0.1h6.7 c0.1,0,0.2,0.1,0.2,0.1c0,0.2,0.1,0.3,0.1,0.5C45.6,58.4,44,59.7,42,59.7z M38.8,56.7c0,0.1,0,0.2,0,0.3c0,1.3,1.5,2.3,3.2,2.3 s3.2-1,3.2-2.3c0-0.1,0-0.2,0-0.3H38.8z"/></svg>